<svg xmlns="http://www.w3.org/2000/svg" width="32.667" height="32.667"><path d="M16.333 0C7.327 0 0 7.327 0 16.334c0 9.006 7.326 16.333 16.333 16.333a1.006 1.006 0 100-2.013c-7.896 0-14.318-6.424-14.318-14.319 0-7.896 6.422-14.32 14.318-14.32S30.65 8.439 30.65 16.335c0 3.299-1.756 6.571-4.269 7.955a6.172 6.172 0 01-2.959.761 4.73 4.73 0 001.591-1.531c.08-.121.186-.226.238-.359.328-.789.357-1.684.555-2.516.243-1.066-4.658-3.143-5.084-1.815-.154.493-.39 2.048-.699 2.458-.275.365-.953.193-1.377-.168-1.117-.952-2.364-2.352-3.458-3.457l.002-.001a3.969 3.969 0 00-.092-.091l-.093-.092c-1.106-1.093-2.506-2.338-3.457-3.458-.36-.424-.534-1.1-.168-1.376.41-.31 1.966-.543 2.458-.698 1.326-.425-.75-5.329-1.816-5.084-.832.195-1.727.225-2.516.552-.134.056-.238.16-.359.24-2.799 1.775-3.16 6.083-.428 9.292a75.688 75.688 0 003.245 3.576l-.006.004c.031.031.063.06.095.09.03.031.059.062.088.095l.006-.006c1.16 1.118 2.535 2.764 4.769 4.255 4.703 3.141 8.312 2.264 10.438 1.098 3.67-2.021 5.312-6.338 5.312-9.719C32.667 7.327 25.339 0 16.333 0z"/></svg>